<?xml version="1.0" encoding="UTF-8" standalone="no"?>
<!-- Created with Inkscape (http://www.inkscape.org/) -->

<svg
   xmlns:dc="http://purl.org/dc/elements/1.1/"
   xmlns:cc="http://creativecommons.org/ns#"
   xmlns:rdf="http://www.w3.org/1999/02/22-rdf-syntax-ns#"
   xmlns:svg="http://www.w3.org/2000/svg"
   xmlns="http://www.w3.org/2000/svg"
   xmlns:sodipodi="http://sodipodi.sourceforge.net/DTD/sodipodi-0.dtd"
   xmlns:inkscape="http://www.inkscape.org/namespaces/inkscape"
   id="svg3336"
   version="1.1"
   inkscape:version="0.91 r13725"
   width="90"
   height="90"
   viewBox="0 0 90 90"
   sodipodi:docname="camhigh.svg">
  <metadata
     id="metadata3342">
    <rdf:RDF>
      <cc:Work
         rdf:about="">
        <dc:format>image/svg+xml</dc:format>
        <dc:type
           rdf:resource="http://purl.org/dc/dcmitype/StillImage" />
        <dc:title />
      </cc:Work>
    </rdf:RDF>
  </metadata>
  <defs
     id="defs3340" />
  <sodipodi:namedview
     pagecolor="#ffffff"
     bordercolor="#666666"
     borderopacity="1"
     objecttolerance="10"
     gridtolerance="10"
     guidetolerance="10"
     inkscape:pageopacity="0"
     inkscape:pageshadow="2"
     inkscape:window-width="1920"
     inkscape:window-height="1017"
     id="namedview3338"
     showgrid="false"
     inkscape:zoom="11.313708"
     inkscape:cx="45.217888"
     inkscape:cy="44.669761"
     inkscape:window-x="-8"
     inkscape:window-y="-8"
     inkscape:window-maximized="1"
     inkscape:current-layer="g4338"
     fit-margin-top="5"
     fit-margin-left="5"
     fit-margin-right="5"
     fit-margin-bottom="5" />
  <text
     xml:space="preserve"
     style="font-style:normal;font-weight:normal;font-size:10.08902645px;line-height:125%;font-family:sans-serif;letter-spacing:0px;word-spacing:0px;fill:#000000;fill-opacity:1;stroke:none;stroke-width:1px;stroke-linecap:butt;stroke-linejoin:miter;stroke-opacity:1"
     x="114.27158"
     y="73.932251"
     id="text4269"
     sodipodi:linespacing="125%"><tspan
       sodipodi:role="line"
       id="tspan4271"
       x="114.27158"
       y="73.932251" /></text>
  <text
     xml:space="preserve"
     style="font-style:normal;font-weight:normal;font-size:10.08902645px;line-height:125%;font-family:sans-serif;letter-spacing:0px;word-spacing:0px;fill:#000000;fill-opacity:1;stroke:none;stroke-width:1px;stroke-linecap:butt;stroke-linejoin:miter;stroke-opacity:1"
     x="112.13136"
     y="75.537415"
     id="text4273"
     sodipodi:linespacing="125%"><tspan
       sodipodi:role="line"
       id="tspan4275"
       x="112.13136"
       y="75.537415" /></text>
  <text
     xml:space="preserve"
     style="font-style:normal;font-variant:normal;font-weight:bold;font-stretch:normal;font-size:5px;line-height:125%;font-family:sans-serif;-inkscape-font-specification:'sans-serif Bold';letter-spacing:0px;word-spacing:0px;fill:#000000;fill-opacity:1;stroke:none;stroke-width:1px;stroke-linecap:butt;stroke-linejoin:miter;stroke-opacity:1"
     x="27.175457"
     y="98.278687"
     id="text4286"
     sodipodi:linespacing="125%"><tspan
       sodipodi:role="line"
       id="tspan4288"
       x="27.175457"
       y="98.278687" /></text>
  <text
     xml:space="preserve"
     style="font-style:normal;font-variant:normal;font-weight:bold;font-stretch:normal;font-size:5px;line-height:125%;font-family:sans-serif;-inkscape-font-specification:'sans-serif Bold';letter-spacing:0px;word-spacing:0px;fill:#000000;fill-opacity:1;stroke:none;stroke-width:1px;stroke-linecap:butt;stroke-linejoin:miter;stroke-opacity:1"
     x="25.050457"
     y="100.27869"
     id="text4290"
     sodipodi:linespacing="125%"><tspan
       sodipodi:role="line"
       id="tspan4292"
       x="25.050457"
       y="100.27869" /></text>
  <g
     id="g4338"
     transform="translate(-7.802466,-13.544726)">
    <path
       sodipodi:nodetypes="cccccc"
       inkscape:connector-curvature="0"
       id="path3359"
       d="m 17.354467,16.270063 c 4.71875,2.82244 9.770739,4.797737 16.960985,4.459159 6.777075,0.428497 12.504774,-2.181244 17.966794,-4.711623 l 0.124922,33.482479 -34.864248,0.06281 z"
       style="opacity:1;fill:#003e7e;fill-opacity:1;fill-rule:evenodd;stroke:none;stroke-width:0.60000002;stroke-linecap:butt;stroke-linejoin:miter;stroke-miterlimit:4;stroke-dasharray:none;stroke-opacity:1" />
    <path
       sodipodi:nodetypes="cccccc"
       inkscape:connector-curvature="0"
       id="path3359-5"
       d="m 54.102713,16.187567 c 4.718751,2.82244 9.77074,4.797737 16.960985,4.459159 6.777076,0.428498 12.315606,-2.118188 17.777625,-4.648566 l 0.314094,33.419422 -34.864249,0.06281 z"
       style="opacity:1;fill:#003e7e;fill-opacity:1;fill-rule:evenodd;stroke:none;stroke-width:0.60000002;stroke-linecap:butt;stroke-linejoin:miter;stroke-miterlimit:4;stroke-dasharray:none;stroke-opacity:1" />
    <path
       sodipodi:nodetypes="ccccsc"
       inkscape:connector-curvature="0"
       id="path4176"
       d="m 17.483911,50.923724 35.059366,0.126113 0,37.770792 C 38.302709,82.812198 24.948396,76.955694 22.276198,72.930413 19.038709,69.120441 18.074959,66.35532 17.599677,61.980272 17.267099,58.918832 17.739901,54.267183 17.483911,50.923724 Z"
       style="opacity:1;fill:#003e7e;fill-opacity:1;fill-rule:evenodd;stroke:none;stroke-width:1px;stroke-linecap:butt;stroke-linejoin:miter;stroke-opacity:1" />
    <path
       sodipodi:nodetypes="ccccsc"
       inkscape:connector-curvature="0"
       id="path4176-5"
       d="m 89.049012,50.923724 -35.059368,0.126113 0,37.770792 c 14.240567,-6.008431 27.594883,-11.864935 30.26708,-15.890216 3.237488,-3.809972 4.201238,-6.575093 4.67652,-10.950141 0.332579,-3.06144 -0.140217,-7.713089 0.115762,-11.056548 z"
       style="opacity:1;fill:#003e7e;fill-opacity:1;fill-rule:evenodd;stroke:none;stroke-width:1px;stroke-linecap:butt;stroke-linejoin:miter;stroke-opacity:1" />
    <path
       sodipodi:nodetypes="ccccccccccccccccc"
       inkscape:connector-curvature="0"
       id="path4193"
       d="m 49.926436,43.356955 0,-14.187693 -4.017394,0 0,3.236997 -4.610124,0 0,-3.236997 -4.017396,0 0,3.236997 -4.412546,0 0,-3.236997 -4.083253,0 0,3.236997 -4.412549,0 0,-3.236997 -4.083253,0 0,14.187693 c -7.577704,0 26.884299,0 29.636515,0 z"
       style="fill:#ffffff;fill-opacity:1;fill-rule:evenodd;stroke:none;stroke-width:1px;stroke-linecap:butt;stroke-linejoin:miter;stroke-opacity:1" />
    <path
       sodipodi:nodetypes="ccccccccccccc"
       inkscape:connector-curvature="0"
       id="path4197"
       d="m 55.082992,55.806424 0,4.637112 c 2.52857,0.983835 4.001862,0.384755 5.618039,0 2.529378,-0.655085 5.100098,-1.103459 7.981185,0 3.575539,1.174169 4.656798,0.408343 6.197679,0 2.19701,-0.683045 4.461456,-0.624311 6.777317,0 2.829964,1.293853 4.379923,0.539696 6.063916,0 l 0,-4.637112 c -1.73463,0.323048 -2.847131,1.226755 -6.242266,0 -2.312253,-1.292187 -4.538815,-0.95621 -6.73273,0 -2.080757,0.772851 -4.102061,0.772851 -6.063916,0 -2.830055,-1.181211 -5.581859,-0.953892 -8.293297,0 -1.768642,0.634912 -3.537285,0.672764 -5.305927,0 z"
       style="opacity:1;fill:#ffffff;fill-opacity:1;fill-rule:evenodd;stroke:none;stroke-width:1px;stroke-linecap:butt;stroke-linejoin:miter;stroke-opacity:1" />
    <path
       sodipodi:nodetypes="cccccccccccc"
       inkscape:connector-curvature="0"
       id="path4197-3"
       d="m 55.330302,65.949238 0,4.637113 c 2.52857,0.983835 4.001862,0.384755 5.61804,0 2.529377,-0.655085 5.100097,-1.103459 7.981184,0 3.575539,1.174169 4.656798,0.408343 6.197679,0 2.912042,-1.563083 7.144899,-0.456482 9.110405,0.599036 1.827437,-1.72814 1.776207,-2.691525 3.35249,-5.582959 -1.715538,0.348505 -2.26382,1.846861 -5.863928,0.34681 -2.312253,-1.292186 -4.538814,-0.956209 -6.73273,0 -2.080756,0.772852 -4.10206,0.772852 -6.063916,0 -2.830054,-1.181211 -5.581859,-0.953891 -8.293296,0 -1.768643,0.634913 -3.537286,0.672765 -5.305928,0 z"
       style="opacity:1;fill:#ffffff;fill-opacity:1;fill-rule:evenodd;stroke:none;stroke-width:1px;stroke-linecap:butt;stroke-linejoin:miter;stroke-opacity:1" />
    <path
       sodipodi:nodetypes="ccccccccc"
       inkscape:connector-curvature="0"
       id="path4197-3-4"
       d="m 55.204189,75.912152 0,4.637112 c 2.52857,0.983835 4.064919,0.573924 5.61804,0 1.898813,-0.90731 5.22845,-1.112693 8.204122,0.0223 2.249602,-0.379033 7.350658,-2.984839 10.121809,-5.133101 -1.877384,-0.612503 -2.477062,-0.312471 -4.28083,0.473694 -2.080757,0.772851 -4.102061,0.772851 -6.063917,0 -2.830054,-1.181211 -5.581858,-0.953891 -8.293296,0 -1.768643,0.634912 -3.537285,0.672764 -5.305928,-2e-6 z"
       style="opacity:1;fill:#ffffff;fill-opacity:1;fill-rule:evenodd;stroke:none;stroke-width:1px;stroke-linecap:butt;stroke-linejoin:miter;stroke-opacity:1" />
    <path
       sodipodi:nodetypes="cccccccccccccccc"
       inkscape:connector-curvature="0"
       id="path4229"
       d="m 49.831851,81.506085 c -3.070486,-2.343033 -6.646388,-6.805282 -9.510699,-6.580818 -0.773449,-0.464537 -1.224604,-0.599756 -1.524173,-1.301234 0.677052,-0.09001 1.480809,-0.171089 2.396143,-0.378338 l -1.119714,-1.045841 c -1.596639,0.07577 -2.411378,0.06673 -3.483404,-0.08917 -2.186011,-1.527353 -3.336416,-3.284843 -4.477005,-5.044513 1.188386,0.02143 2.226937,-0.03846 3.415866,-0.13376 l -1.434999,-1.508872 c -1.349532,-0.254294 -0.03678,0.08172 -3.559134,-0.478333 -0.798094,-0.97144 -2.308331,-2.255753 -2.51275,-3.583398 0.647297,-0.02724 1.163375,-0.198552 1.694873,-0.222937 l -0.315282,-0.945847 c -1.056601,-0.002 -1.834619,-0.01513 -2.648369,-0.126113 -1.704031,-1.993216 -2.506082,-4.55017 -3.278934,-7.125374 10.84605,8.397778 19.200154,18.154801 26.357581,28.564545 z"
       style="opacity:1;fill:#b5985a;fill-opacity:1;fill-rule:evenodd;stroke:none;stroke-width:1px;stroke-linecap:butt;stroke-linejoin:miter;stroke-opacity:1" />
    <path
       sodipodi:nodetypes="ccscsc"
       inkscape:connector-curvature="0"
       id="path4233"
       d="m 60.487985,20.722033 19.073609,20.905528 c -0.421788,0.327271 -1.416632,1.064458 -1.12579,2.515533 0.394981,1.970637 2.314007,3.364609 4.624333,2.084641 0.753697,-0.73973 1.748889,-2.413814 0.482561,-4.232484 -0.859872,-1.234929 -2.95076,-1.446573 -3.926242,-0.396979"
       style="fill:none;fill-opacity:1;fill-rule:evenodd;stroke:#b5985a;stroke-width:1.21068323;stroke-linecap:butt;stroke-linejoin:miter;stroke-miterlimit:4;stroke-dasharray:none;stroke-opacity:1" />
    <path
       sodipodi:nodetypes="ccccccccccccccccccccc"
       inkscape:connector-curvature="0"
       id="path4237"
       d="m 59.408244,21.278681 4.949085,5.419922 -2.524676,2.609797 -1.071957,-1.107269 0.09875,-0.702796 1.318247,0.270957 1.075774,-1.067552 -1.722961,-1.7974 -0.923451,0.853552 0.06007,1.047709 -0.709833,0.643968 -1.900922,-2.055252 0.671828,-0.554232 1.087028,0.140177 0.978067,-0.869251 -1.569732,-1.747366 -0.954755,0.848027 -0.170464,1.315096 -0.795671,0.08899 -0.945537,-1.091872 z"
       style="fill:#b5985a;fill-opacity:1;fill-rule:evenodd;stroke:none;stroke-width:1px;stroke-linecap:butt;stroke-linejoin:miter;stroke-opacity:1" />
    <path
       sodipodi:nodetypes="cc"
       inkscape:connector-curvature="0"
       id="path4239"
       d="m 60.142798,21.120192 c -0.0767,-0.692075 0.24554,-0.812011 0.771047,-0.704167"
       style="fill:#b5985a;fill-opacity:1;fill-rule:evenodd;stroke:#b5985a;stroke-width:0.20178053;stroke-linecap:butt;stroke-linejoin:miter;stroke-miterlimit:4;stroke-dasharray:none;stroke-opacity:1" />
    <path
       sodipodi:nodetypes="ccccccccc"
       inkscape:connector-curvature="0"
       id="path4243"
       d="m 18.366701,84.091398 c 10.59245,-0.419348 18.381277,1.964925 24.78117,5.738134 5.517848,2.34501 11.543105,3.441011 19.232206,0.441394 7.545726,-4.231342 15.618065,-5.922274 24.844227,-6.305641 l -0.189169,8.008165 c -8.768744,0.446427 -16.916058,2.601786 -24.339776,6.747036 -6.189512,2.452374 -12.748582,2.317834 -19.610544,0.06306 C 30.186328,92.289097 25.271979,92.690043 19.501716,92.351788 Z"
       style="opacity:1;fill:none;fill-rule:evenodd;stroke:#003e7e;stroke-width:1.00890267;stroke-linecap:butt;stroke-linejoin:miter;stroke-miterlimit:4;stroke-dasharray:none;stroke-opacity:1" />
    <path
       sodipodi:nodetypes="ccccccc"
       inkscape:connector-curvature="0"
       id="path4245"
       d="m 95.613136,80.998427 -3.567008,4.146649 3.567008,4.28041 c -3.093546,0.194517 -8.526593,-0.81847 -8.337884,1.070103 l 0,-6.420616 c -1.15914,-0.840874 -3.548968,-1.89749 -4.057471,-1.560569 2.09001,-1.394311 7.736592,-1.639565 12.395355,-1.515977 z"
       style="fill:none;fill-rule:evenodd;stroke:#003e7e;stroke-width:1.00890267;stroke-linecap:butt;stroke-linejoin:miter;stroke-miterlimit:4;stroke-dasharray:none;stroke-opacity:1" />
    <path
       inkscape:connector-curvature="0"
       id="path4247"
       d="m 82.905666,82.113117 -0.356701,1.738917 3.656184,-0.04459 z"
       style="fill:#003e7e;fill-opacity:1;fill-rule:evenodd;stroke:none;stroke-width:1px;stroke-linecap:butt;stroke-linejoin:miter;stroke-opacity:1" />
    <path
       sodipodi:nodetypes="ccccccc"
       inkscape:connector-curvature="0"
       id="path4245-8"
       d="m 10.165125,80.845205 3.567008,4.146649 -3.567008,4.28041 c 3.093546,0.194517 8.526594,-0.81847 8.337884,1.070103 l 0,-6.420616 c 1.159141,-0.840874 3.548969,-1.89749 4.057472,-1.560569 -2.09001,-1.394311 -7.736592,-1.639565 -12.395356,-1.515977 z"
       style="fill:none;fill-rule:evenodd;stroke:#003e7e;stroke-width:1.00890267;stroke-linecap:butt;stroke-linejoin:miter;stroke-miterlimit:4;stroke-dasharray:none;stroke-opacity:1" />
    <path
       inkscape:connector-curvature="0"
       id="path4247-3"
       d="m 22.872595,81.959895 0.356702,1.738917 -3.656185,-0.04459 z"
       style="fill:#003e7e;fill-opacity:1;fill-rule:evenodd;stroke:none;stroke-width:1px;stroke-linecap:butt;stroke-linejoin:miter;stroke-opacity:1" />
    <g
       style="font-style:normal;font-variant:normal;font-weight:bold;font-stretch:normal;font-size:5px;line-height:125%;font-family:sans-serif;-inkscape-font-specification:'sans-serif, Bold';text-align:start;letter-spacing:0.34999999px;word-spacing:0px;writing-mode:lr-tb;text-anchor:start;fill:#003e7e;fill-opacity:1;stroke:none;stroke-width:1px;stroke-linecap:butt;stroke-linejoin:miter;stroke-opacity:1"
       id="text4298">
      <path
         d="m 26.182658,87.688448 -1.672362,-0.0021 -8.67e-4,0.676269 1.550291,0.002 -9.02e-4,0.703124 -1.550291,-0.002 -0.002,1.552733 -0.932616,-0.0012 0.0047,-3.635251 2.604979,0.0033 -9.02e-4,0.703125 z"
         style=""
         id="path4170" />
      <path
         d="m 31.012346,89.755412 q -0.184759,0.849276 -0.780409,1.244381 -0.595132,0.392719 -1.45395,0.205884 -0.856433,-0.186316 -1.234629,-0.79078 -0.377677,-0.606851 -0.192918,-1.456127 0.186315,-0.856432 0.780928,-1.246766 0.595132,-0.392718 1.451564,-0.206403 0.854048,0.185797 1.234629,0.79078 0.381101,0.602599 0.194785,1.459031 z m -1.409931,0.635211 q 0.168885,-0.133158 0.281043,-0.338622 0.112677,-0.207848 0.17755,-0.506049 0.06954,-0.319672 0.04437,-0.560007 -0.02517,-0.240336 -0.114349,-0.40465 -0.09053,-0.169605 -0.23635,-0.268788 -0.143437,-0.09866 -0.315201,-0.136031 -0.174149,-0.03789 -0.342707,-0.0096 -0.166173,0.02881 -0.326134,0.143922 -0.148344,0.107645 -0.276063,0.327213 -0.124814,0.217701 -0.192282,0.527829 -0.06902,0.317286 -0.04624,0.557103 0.02569,0.23795 0.114349,0.40465 0.08866,0.1667 0.233964,0.268269 0.145304,0.101569 0.321839,0.139974 0.176535,0.0384 0.350902,0.0064 0.174886,-0.03441 0.325306,-0.151597 z"
         style=""
         id="path4172" />
      <path
         d="m 34.370887,90.129765 q 0.04343,-0.129638 0.02121,-0.240073 -0.02222,-0.110436 -0.134021,-0.20711 -0.07787,-0.06729 -0.195925,-0.114559 -0.117276,-0.04959 -0.277007,-0.103101 l -0.321778,-0.107801 -0.310994,0.928295 0.273164,0.09152 q 0.212975,0.07135 0.363482,0.0986 0.150507,0.02725 0.272552,-0.01426 0.11664,-0.04074 0.187005,-0.112435 0.07345,-0.07323 0.122314,-0.219074 z m 0.585516,2.855895 -1.085712,-0.363731 -0.516421,-1.578834 -0.409746,-0.137272 -0.423448,1.263963 -0.884311,-0.296259 1.154787,-3.44696 1.490828,0.499451 q 0.305574,0.102372 0.513861,0.210773 0.208287,0.108401 0.36165,0.288519 0.155679,0.180894 0.207068,0.404091 0.05448,0.221659 -0.03859,0.499453 -0.127966,0.381966 -0.386873,0.563004 -0.256593,0.181814 -0.638829,0.231418 l 0.655732,1.862384 z"
         style=""
         id="path4174" />
      <path
         d="m 39.390042,91.599739 -1.05565,-0.417618 -1.078622,2.726528 -0.871762,-0.344872 1.078622,-2.726528 -1.05565,-0.417618 0.258654,-0.653822 2.983062,1.180108 -0.258654,0.653822 z"
         style=""
         id="path4177" />
      <path
         d="m 40.953015,95.465819 -1.95502,-0.842695 0.255128,-0.591887 0.547047,0.2358 0.928704,-2.154559 -0.547047,-0.2358 0.255128,-0.591887 1.955021,0.842696 -0.255128,0.591887 -0.547047,-0.2358 -0.928705,2.154558 0.547047,0.2358 -0.255128,0.591887 z"
         style=""
         id="path4179" />
      <path
         d="m 45.670108,94.131966 -1.067402,-0.386594 -0.998492,2.756881 -0.881467,-0.319251 0.998492,-2.756881 -1.067402,-0.386594 0.239439,-0.6611 3.016271,1.092439 -0.239439,0.6611 z"
         style=""
         id="path4181" />
      <path
         d="m 48.046337,97.921645 -2.522309,-0.742746 1.026879,-3.487204 2.522309,0.742746 -0.198617,0.674489 -1.627675,-0.479302 -0.177238,0.601888 1.510575,0.44482 -0.198617,0.67449 -1.510575,-0.44482 -0.253789,0.861847 1.627674,0.479303 -0.198617,0.674489 z"
         style=""
         id="path4183" />
      <path
         d="m 51.294884,95.703308 q 0.0052,-0.136619 -0.04713,-0.236354 -0.05237,-0.09974 -0.186836,-0.161085 -0.09365,-0.04268 -0.220228,-0.05487 -0.126486,-0.01462 -0.294819,-0.02108 l -0.339107,-0.013 -0.03751,0.978285 0.287874,0.01104 q 0.224445,0.0086 0.376543,-0.0076 0.152098,-0.01616 0.257554,-0.0903 0.100485,-0.07189 0.147858,-0.160468 0.04991,-0.09093 0.0558,-0.244624 z m 1.364707,2.576148 -1.144178,-0.04387 -0.939414,-1.370004 -0.431811,-0.01655 -0.05107,1.332029 -0.931933,-0.03573 0.139273,-3.632585 1.571112,0.06024 q 0.322029,0.01235 0.552389,0.05783 0.23036,0.04548 0.428172,0.175224 0.20025,0.129838 0.312309,0.32959 0.114591,0.197407 0.103367,0.49016 -0.01543,0.402537 -0.213011,0.649054 -0.195138,0.246611 -0.548017,0.401663 l 1.152812,1.60296 z"
         style=""
         id="path4185" />
      <path
         d="m 58.110654,98.009178 -2.619405,0.228983 -0.316578,-3.621443 2.619405,-0.228983 0.06123,0.700454 -1.690331,0.147765 0.05464,0.625058 1.568725,-0.137135 0.06123,0.700454 -1.568725,0.137134 0.07824,0.895024 1.690331,-0.147764 0.06123,0.700453 z"
         style=""
         id="path4187" />
      <path
         d="m 61.160115,94.2224 -1.090737,0.314792 0.813043,2.817151 -0.900738,0.259958 -0.813043,-2.817152 -1.090737,0.314792 -0.194968,-0.675553 3.082212,-0.889541 0.194968,0.675553 z"
         style=""
         id="path4189" />
      <path
         d="m 65.216799,92.325685 q -0.06135,-0.122178 -0.155361,-0.184249 -0.09401,-0.06207 -0.241384,-0.05089 -0.102618,0.0078 -0.219356,0.05825 -0.117834,0.04825 -0.268375,0.123844 l -0.303264,0.152293 0.439349,0.874884 0.257447,-0.129285 q 0.200721,-0.100798 0.326129,-0.188363 0.125408,-0.08756 0.181982,-0.203398 0.05331,-0.111459 0.05204,-0.211906 -1.81e-4,-0.103723 -0.06921,-0.241174 z m 2.43866,1.597468 -1.023243,0.513852 -1.484008,-0.746411 -0.386171,0.193927 0.598216,1.191238 -0.83343,0.418532 -1.631398,-3.248633 1.40505,-0.705587 q 0.287992,-0.144624 0.511693,-0.215983 0.223701,-0.07136 0.459569,-0.05321 0.238049,0.01705 0.432605,0.137909 0.195643,0.117577 0.327119,0.379387 0.180779,0.35999 0.12673,0.671256 -0.05187,0.310171 -0.286078,0.616292 l 1.783346,0.847429 z"
         style=""
         id="path4191" />
      <path
         d="m 70.874047,92.81118 -2.455531,0.940256 -1.299946,-3.39488 2.455531,-0.940256 0.251433,0.656632 -1.584581,0.606758 0.22437,0.585953 1.470582,-0.563106 0.251434,0.656632 -1.470583,0.563106 0.321276,0.83903 1.584582,-0.606758 0.251433,0.656633 z"
         style=""
         id="path4194" />
      <path
         d="m 73.532638,91.973942 q -0.385043,0.126446 -0.749422,0.120191 -0.362059,-0.007 -0.670219,-0.155077 -0.30816,-0.148061 -0.548504,-0.441737 -0.238024,-0.294438 -0.382751,-0.73515 -0.134824,-0.410558 -0.121577,-0.784942 0.01325,-0.374385 0.169063,-0.690231 0.149585,-0.303521 0.440145,-0.537702 0.292881,-0.234942 0.687202,-0.364435 0.218036,-0.0716 0.40038,-0.103216 0.183902,-0.0347 0.345302,-0.04401 0.169881,-0.007 0.313417,0.0076 0.145094,0.01146 0.25543,0.02662 l 0.274981,0.837352 -0.102059,0.03352 q -0.08323,-0.03434 -0.208105,-0.07813 -0.122558,-0.04455 -0.272188,-0.07765 -0.151949,-0.03233 -0.317157,-0.03461 -0.165209,-0.0023 -0.334535,0.05333 -0.187882,0.0617 -0.337403,0.177613 -0.150283,0.113594 -0.249153,0.297673 -0.09343,0.177156 -0.107656,0.423376 -0.0119,0.245458 0.09017,0.556276 0.106641,0.324735 0.268704,0.513064 0.164384,0.187567 0.344689,0.267119 0.183386,0.08111 0.375632,0.07965 0.191485,-0.0038 0.360811,-0.05938 0.162368,-0.05332 0.3041,-0.153828 0.144052,-0.101269 0.251163,-0.228952 0.09157,-0.104591 0.163851,-0.213128 0.07228,-0.108537 0.11663,-0.184772 l 0.09278,-0.03047 0.271173,0.825754 q -0.110851,0.100645 -0.212389,0.190523 -0.101539,0.08988 -0.219245,0.169646 -0.15333,0.104316 -0.293402,0.178581 -0.140071,0.07426 -0.399859,0.159578 z"
         style=""
         id="path4196" />
      <path
         d="m 77.81364,87.69591 -1.103689,0.265844 0.686619,2.850602 -0.911433,0.219535 -0.686619,-2.850602 -1.103689,0.265843 -0.164651,-0.683575 3.11881,-0.751222 0.164652,0.683575 z"
         style=""
         id="path4198" />
      <path
         d="m 82.02189,90.167022 -2.620679,0.213905 -0.295734,-3.623205 2.62068,-0.213905 0.0572,0.700794 -1.691153,0.138036 0.05104,0.625361 1.569488,-0.128104 0.0572,0.700794 -1.569488,0.128105 0.07309,0.89546 1.691154,-0.138036 0.0572,0.700795 z"
         style=""
         id="path4200" />
    </g>
    <path
       sodipodi:nodetypes="ccccc"
       inkscape:connector-curvature="0"
       id="path4302"
       d="m 23.115354,90.711611 c 2.694807,-0.315258 6.991883,-0.105992 18.764087,5.170494 8.685332,3.147087 7.410593,2.106472 10.997398,2.329505 8.762988,0.282591 10.786024,-2.356636 13.204506,-3.495558 13.505092,-5.675587 16.315242,-4.385055 18.606155,-4.338388"
       style="opacity:0;fill:none;fill-rule:evenodd;stroke:#000000;stroke-width:0.5;stroke-linecap:butt;stroke-linejoin:miter;stroke-miterlimit:4;stroke-dasharray:none;stroke-opacity:1" />
  </g>
</svg>
